<?xml version="1.0" encoding="utf-8"?>
<!-- Generator: Adobe Illustrator 22.1.0, SVG Export Plug-In . SVG Version: 6.00 Build 0)  -->
<svg version="1.1" id="Layer_1" xmlns="http://www.w3.org/2000/svg" xmlns:xlink="http://www.w3.org/1999/xlink" x="0px" y="0px"
	 viewBox="0 0 130.5 76.1" style="enable-background:new 0 0 130.5 76.1;" xml:space="preserve">
<style type="text/css">
	.st0{fill:#5B5B5B;}
</style>
<g>
	<g>
		<path class="st0" d="M0.8,1.3C12.5-0.5,24.4-0.4,36,1.5C47.6,3.4,59,7,69.7,12.1c5.3,2.6,10.5,5.5,15.4,8.9
			c4.9,3.3,9.6,7.1,13.9,11.2c8.6,8.1,16,17.8,20.9,28.6c0.2,0.5,0,1-0.5,1.3c-0.4,0.2-0.9,0-1.2-0.3c-6.7-9.5-14-18.4-22.3-26.3
			c-4.2-3.9-8.6-7.6-13.2-11c-4.6-3.4-9.5-6.5-14.6-9.2C58,9.6,47.1,5.6,35.7,3.5C24.3,1.4,12.5,1.1,1.1,3.2C0.6,3.3,0.1,2.9,0,2.4
			S0.3,1.4,0.8,1.3C0.8,1.3,0.8,1.3,0.8,1.3z"/>
	</g>
	<g>
		<path class="st0" d="M127.7,51c-0.3,1.9-0.3,3.8-0.3,5.8c0,1.9,0.1,3.9,0.4,5.8c0.2,1.9,0.6,3.8,1,5.7c0.5,1.9,1,3.7,1.6,5.5
			c0.3,0.9-0.2,1.9-1.1,2.2c-0.4,0.1-0.8,0.1-1.1,0l-0.3-0.1l-4.9-1.7c-1.6-0.6-3.2-1.2-4.9-1.8c-1.6-0.6-3.2-1.3-4.8-2
			c-1.6-0.8-3.1-1.6-4.6-2.6c-0.5-0.3-0.6-0.9-0.3-1.4c0.2-0.3,0.5-0.4,0.8-0.4c1.8,0,3.6,0.3,5.3,0.7c1.7,0.4,3.4,0.9,5.1,1.5
			c1.6,0.6,3.3,1.3,4.9,2c1.6,0.7,3.2,1.5,4.8,2.3l-2.4,2.1c-0.4-2-0.6-4-0.8-6c-0.2-2-0.3-4-0.4-6c-0.1-2-0.1-4-0.1-5.9
			c0-2,0.1-4,0.2-5.9c0-0.5,0.5-0.9,1-0.9C127.3,50,127.7,50.4,127.7,51C127.7,51,127.7,51,127.7,51z"/>
	</g>
</g>
</svg>
