<?xml version="1.0" encoding="utf-8"?>
<!-- Generator: Adobe Illustrator 22.1.0, SVG Export Plug-In . SVG Version: 6.00 Build 0)  -->
<svg version="1.1" id="Layer_1" xmlns="http://www.w3.org/2000/svg" xmlns:xlink="http://www.w3.org/1999/xlink" x="0px" y="0px"
	 viewBox="0 0 41.6 62" style="enable-background:new 0 0 41.6 62;" xml:space="preserve">
<style type="text/css">
	.st0{display:none;}
</style>
<path d="M28.5,38.3v-3.8l1.4,1.4c1.1-1.1,11.3-11.3,11.7-11.7L31.3,13.9h-6.2v-1.2l1.8-1.8V6.1c0-3.4-2.8-6.1-6.1-6.1
	c-3.4,0-6.1,2.8-6.1,6.1v4.8l1.8,1.8v1.2h-6.2L0,24.2l11.7,11.7l1.4-1.4v3.8C12.7,39.5,7,60.8,6.7,62h5.4l2.4-1.8l2.5-9.4l3-11.5
	h1.5l3,11.5l2.5,9.4l2.4,1.8h5.4C34.6,60.8,28.9,39.5,28.5,38.3z M28.5,27.2v-6.1l3.1,3.1C30.5,25.3,29.7,26.1,28.5,27.2z
	 M32.8,30.5l-2.8,2.8l-1.4-1.4v-2l1.8-1.8C31.2,28.9,31.9,29.6,32.8,30.5z M16.5,6.1c0-2.4,1.9-4.3,4.3-4.3s4.3,1.9,4.3,4.3v4
	l-2.8,2.8h-3.1l-2.8-2.8V6.1z M11.7,33.3l-2.8-2.8l2.4-2.4l1.8,1.8v2L11.7,33.3z M10,24.2l3.1-3.1v6.1C12.1,26.2,11,25.2,10,24.2z
	 M12.9,59.1l-1.4,1.1H9.1l2-7.6h3.5L12.9,59.1z M22.9,37.5h-4.3l-3.5,13.3h-3.5l3.3-12.3c0-0.1,0-14.4,0-14.4l1.8,1.8h2.8v-1.8h-2
	l-2.6-2.6v-2.5l-1.7-0.7l-5.8,5.8l2.6,2.6c-0.9,0.9-1.5,1.5-2.4,2.4l-5-5l8.5-8.5h7.3v-1.2l0.2,0.2h4.6l0.2-0.2v1.2h7.3l8.5,8.5
	l-5,5c-0.9-0.9-1.5-1.5-2.4-2.4l2.6-2.6l-5.8-5.8l-1.7,0.7v2.5l-2.6,2.6h-2v1.8h2.8l1.8-1.8v14.4L30,50.8h-3.5L22.9,37.5z
	 M30.1,60.2l-1.4-1.1l-1.7-6.6h3.5l2,7.6H30.1z"/>
<path class="st0" d="M21.7,27h-1.8v3.9h-3.5v1.8h8.8v-1.8h-3.5V27z"/>
<path class="st0" d="M16.4,34.2h8.8V36h-8.8V34.2z"/>
<path d="M32.3,35L37,51.8l-3,0.8l0.4,1.8l4.8-1.2L34,34.5L32.3,35z"/>
<path d="M7.6,34.5L2.4,53.1l4.8,1.2l0.4-1.8l-3-0.8L9.3,35L7.6,34.5z"/>
<path d="M17.4,55L17,56.8c1.2,0.3,2.5,0.4,3.8,0.4c1.3,0,2.5-0.1,3.8-0.4L24.2,55C21.9,55.5,19.7,55.5,17.4,55z"/>
<path d="M24.4,20c0-2-1.6-3.6-3.6-3.6c-2,0-3.6,1.6-3.6,3.6c0,2,1.6,3.6,3.6,3.6C22.8,23.6,24.4,22,24.4,20z M19.1,20
	c0-1,0.8-1.7,1.7-1.7c1,0,1.7,0.8,1.7,1.7c0,1-0.8,1.7-1.7,1.7C19.8,21.8,19.1,21,19.1,20z"/>
<path d="M22.6,11.3l-1-1.3l0.9-1.2V6.1c0-0.7-0.5-1.3-1-1.3V3c1.4,0,2.5,1.4,2.5,3.1v3.5L22.6,11.3z"/>
<path d="M33.5,50.6L31.6,44l1.8-0.5l1.8,6.6L33.5,50.6z M31.3,42.8l-0.5-1.8l1.8-0.5l0.5,1.8L31.3,42.8z M30.5,39.9L30,38.1l1.8-0.5
	l0.5,1.8L30.5,39.9z"/>
<path class="st0" d="M36.3,25l-2.5-2.5l1.3-1.3l2.5,2.5L36.3,25z M32.9,21.7l-1.3-1.3l1.3-1.3l1.3,1.3L32.9,21.7z M30.8,19.5
	l-1.3-1.3l1.3-1.3l1.3,1.3L30.8,19.5z"/>
</svg>
