<?xml version="1.0" encoding="utf-8"?>
<!-- Generator: Adobe Illustrator 22.1.0, SVG Export Plug-In . SVG Version: 6.00 Build 0)  -->
<svg version="1.1" id="Layer_1" xmlns="http://www.w3.org/2000/svg" xmlns:xlink="http://www.w3.org/1999/xlink" x="0px" y="0px"
	 viewBox="0 0 265 180" style="enable-background:new 0 0 265 180;" xml:space="preserve">
<style type="text/css">
	.st0{fill:#FFFFFF;}
	.st1{opacity:0.5;}
	.st2{fill:#87C4FF;}
	.st3{fill:#E5D1BD;}
	.st4{fill:#06A66E;}
	.st5{display:none;}
	.st6{display:inline;}
	.st7{fill:#EACDB0;}
	.st8{fill:#292949;}
	.st9{display:inline;fill:#1A3151;}
	.st10{fill:#EBB044;}
	.st11{fill:#002D51;}
	.st12{fill:#005467;}
	.st13{fill:#353A85;}
	.st14{fill:#5D66D3;}
	.st15{fill:#2594FF;}
	.st16{opacity:0.2;fill:#DDDAE8;}
	.st17{opacity:0.2;}
	.st18{fill:#3B3387;}
	.st19{opacity:0.49;fill:#808080;}
	.st20{fill:#F7F7F7;}
	.st21{fill:#0C5AA6;}
	.st22{display:none;fill:#14FFAC;}
	.st23{fill:#A66506;}
	.st24{fill:#BABCBE;}
	.st25{fill:#E8E8E8;}
	.st26{fill:#EED5D5;}
	.st27{opacity:0.25;fill:#3B455A;}
	.st28{fill:#AAB4B5;}
	.st29{fill:#B1B1B2;}
	.st30{fill:#FFCA7E;}
	.st31{fill:#DDDDDD;}
	.st32{opacity:0.2;fill:#3B3387;}
	.st33{opacity:0.5;fill:#FFFFFF;}
	.st34{fill:#F6F7F7;}
	.st35{fill:#EDECED;}
	.st36{fill:#C4C4C4;}
	.st37{fill:#C2C2C4;}
	.st38{fill:#9E9E9E;}
	.st39{fill:#EDE607;}
	.st40{fill:none;stroke:#FFFFFF;stroke-width:2;stroke-miterlimit:10;}
	.st41{fill:#14FFAC;}
	.st42{opacity:0.2;fill:#F6F6F6;}
	.st43{opacity:0.2;fill:#33435A;}
</style>
<rect x="-17.6" y="-17" class="st0" width="284.6" height="207"/>
<g class="st1">
	<path class="st2" d="M117.7,150.9c-7,0-14,0.2-21,1c-2.6,0.3-5.2,1-7.9,1.2c-5.3,0.5-10.5,1.6-15.8,2c-4.3,0.4-8.6,0.6-12.8,1.1
		c-4,0.4-8.4,0.3-12.4-0.4c-2.9-0.5-5.9-0.9-8.8-1.7c-3.2-1-6.7-1.7-10.1-1.7c-4.8,0-9.5,0-14,1.8c-1.6,0.6-3.6,1.6-4.8,2.9
		c-2.8,2.9-3.2,10.2-0.4,13.2c4.7,5.1,14.8,7.1,21.4,7.2c7.2,0.1,14.3-0.5,21.5-0.8c6.7-0.3,13.4-0.7,20.2-0.7c13.8,0,27.5,0,41.3-1
		c12.9-0.9,25.9-0.6,38.8-0.6c13.3,0,26.4,0.1,39.6,1.9c5.7,0.8,11.6,1.1,17.4,1.6c5.2,0.5,10.1,0,15.3-0.5
		c4.3-0.4,8.6-1.5,12.5-3.5c3.1-1.5,8.6-6.3,9.6-10c2.7-10.3-37.6-10.1-43.8-10.1c-6.9,0-13.9,0.3-20.8,0c-2.9-0.1-5.8-0.7-8.6-1.4
		c-2.8-0.6-5.7-0.5-8.5-0.8c-12-1.1-24-1-36-1C125.5,150.9,121.6,150.9,117.7,150.9z"/>
</g>
<g>
	<g>
		<path class="st3" d="M73,84.8c-0.1,0-0.1-0.1-0.2-0.1c-0.6-0.3-1.1,0-1.8-0.1c-0.3,0-0.6-0.7-1.1-0.3c-0.2,0.2-0.5,0.7-0.8,1.1
			c-0.5,0.6-1.4,1-2.2,1.2c-1.1,0.3-2.2,0.6-3.3,0.7c-2.3,0.2-4.9,0.2-7.3,0c0.2-3.9-2-7.7-5.4-9.6c-0.4-0.2-0.7-0.4-1.1-0.4
			c-0.3,0-0.7,0.1-1,0.3c-3.2,1.6-1.5,4.6-0.3,7.1c0.8,1.5,1.7,3,2.7,4.4c1.4,2,3.5,2.4,5.8,2.3c2.5-0.1,5-0.2,7.5-0.8
			c1.2-0.3,2.2-0.8,3.3-1.2c1.1-0.4,1.2,0.1,2.3-0.1c0.6-0.1,1.2,0,1.8-0.2c1-0.3,1.4-1.4,1.8-2.3c0.1-0.2,0.2-0.4,0.2-0.6
			c0-0.4-0.3-0.6-0.5-0.9C73.3,85.1,73.1,85,73,84.8z"/>
	</g>
	<g>
		<path class="st4" d="M47.7,86.8c0.7,1.1,1.5,2.2,2.3,3.2c1.2,1.5,2.5,3.1,4.3,3.5c0.7,0.2,1.4,0.1,2.2,0.1
			c3.4-0.2,6.9-0.4,10.3-0.8c0.3-1.8,0.2-3.6-0.1-5.4c-0.1-0.5-0.2-1-0.6-1.4c-0.6-0.5-1.4-0.3-2.2-0.1c-1.2,0.3-2.4,0.6-3.6,0.9
			c-0.4,0.1-0.8,0.2-1.2,0c-0.2-0.1-0.4-0.4-0.5-0.6c-2.6-4.2-4-8.1-5.4-12.8c-0.6-2-1.3-4.2-2.8-5.8c-3.1-3.4-8.8-1.4-8.6,3.4
			C42.1,76.5,44.6,82.1,47.7,86.8z"/>
	</g>
</g>
<g>
	<g class="st5">
		<g class="st6">
			<g id="XMLID_79_">
				<path id="XMLID_80_" class="st7" d="M152.9,136.1l0.2,10.8c-0.1,3,0.2,6,0.4,9c0.2,2.8-0.4,5.7,0.9,8.2c0.4,0.8,1.3,1.4,2,0.4
					c0.5-0.7,0.3-2,0.4-2.8c1-6.3,2.7-12.4,3.6-18.7C161.4,136.5,158.8,136.6,152.9,136.1z"/>
			</g>
			<polygon class="st8" points="153.5,162.3 152.8,164.1 156.3,167.1 159.4,167.2 160.4,165.6 156.2,161.9 			"/>
		</g>
		<g class="st6">
			<g id="XMLID_77_">
				<path id="XMLID_78_" class="st7" d="M145.3,136.2c0,0-2,10.7-2,10.7c-0.7,4.8-2.2,9.4-2.9,14.2c-0.2,1.1-0.1,2.3-0.5,3.3
					c-0.4,1-1.3,1.1-2.1,0.4c-1-0.9-0.6-2.6-0.5-3.8c0.1-8.4-0.5-16.6-0.7-25c0-0.1,0-0.2,0.1-0.3c0.1-0.1,0.2-0.1,0.3,0
					C137.6,135.6,145.2,136.4,145.3,136.2z"/>
			</g>
			<polygon class="st8" points="137.2,162.7 136.1,164.3 138.7,168 141.8,168.9 143.1,167.5 139.8,162.9 			"/>
		</g>
		<polygon class="st9" points="164.1,148.6 162.6,133.2 161.9,123.1 159.5,114.9 146.6,112.9 130.6,115.6 129.8,118.7 132.9,147.5 
			148.3,148.6 148.1,130.7 150.5,141.8 150.4,148.6 		"/>
	</g>
	<path class="st0" d="M134,78.9c0,0.5,0,1,0,1.6c-0.2,10.6,0.4,21.4,0.5,32.1c5.5-0.9,11-1.3,16.6-1.4c1.3,0,7.1,0.9,7.9,0.1
		c1.1-1-0.1-0.8,0-2.2c0.1-1.8-0.7-3.2-0.4-5.3c0.4-2.4,1.1-4.9,1.5-7.3c0.9-4.9,1.4-9.9,1.5-14.8c0.1-4.4,0-9-1.9-13
		c-4.7-9.8-19.8-9.7-23.9,0.6C134.5,72.3,134.1,75.6,134,78.9z"/>
	<path class="st10" d="M151,65.1l-4.1,7.5c0.2,7.5,0.4,15.1,0.6,22.6c0.1,3.5,0.2,7,0.3,10.4c0,1.2,0.1,2.4,0.1,3.6
		c0,0.5-0.1,1.5,0.2,1.9c0.7,1,3.1,0.7,4.2,0.7c1.7,0.1,3.4,0.3,4.9,0.8c1,0.4,2,1,3.1,1.1c0.2,0,0.5,0,0.7-0.1
		c0.2-0.2,0.3-0.5,0.3-0.8c0.4-5.2,0.4-10.5,0.7-15.7c0.2-4.1,0.8-8.3,0.6-12.4c-0.2-4.2-0.9-8.5-1.7-12.6c-0.5-2.5-1-5-2.4-7.1
		c-1.5-2.4-3.7-3.4-6.4-3.9c-0.9-0.2-4.5-1.5-3.9,0.6C148.6,62.9,150.3,64.3,151,65.1z"/>
	<path class="st10" d="M142.1,65.8l4.1,7.5c-0.1,0-0.5,18.3-0.6,19.5c-0.1,4.7-0.3,9.4-0.4,14.1c0,1.3,0.1,2.8-0.1,4.1
		c-0.4,1.8-2.2,1.4-3.8,1.6c-3.5,0.3-7.2,0.9-10.7,0.7c-1-0.1,0.3-21.3,0.3-23.3c0-7.1-1.5-15,2.1-21.5c1.1-1.9,2.9-4.9,5-5.8
		c1.9-0.9,4.6-1,6.7-1.5l0.1,1.3L142.1,65.8z"/>
	<g>
		<g>
			<path class="st8" d="M151,47.7c0.6,1.1,1,2.4,1,3.7c0,0.3,0,0.7,0.3,0.9c0.3,0.2,0,0.7,0.3,0.4c0.2-0.3,1-1.3,1-1.7
				c0.1-0.9,0.1-1.7,0-2.6c-0.1-0.8-0.2-1.5-0.7-2.1c-0.3-0.3-0.7-0.6-1.1-0.8c-0.6-0.3-1.1-0.7-1.8-0.8c-1.1-0.2-1.8,0.2-0.8,1
				C149.9,46.4,150.5,47,151,47.7z"/>
			<g>
				<path class="st7" d="M144.1,62.5c0,0.5-0.1,1.1,0.4,1.5c0.2,0.2,0.5,0.3,0.8,0.3c0.8,0.1,1.6,0.1,2.3-0.2
					c0.3-0.1,0.6-0.2,0.8-0.4c0.3-0.3,0.3-0.5,0.3-0.9c0-0.4,0.1-0.8,0.1-1.2c0.1-0.9,0.2-1.8,0.2-2.7c1.3-0.2,2.9-0.7,3.3-2
					c0.1-0.4,0.1-0.9,0.2-1.4c0-1.9,0-3.8,0-5.7c0-0.7,0-1.3-0.2-2c-0.4-1.1-1.4-1.7-2.4-2.1c-2.5-1-5.5-1-7.8,0.5
					c-0.6,0.4-1.2,0.9-1.6,1.6c-0.6,1.1-0.5,2.3-0.4,3.6c0.1,1.1,0.2,2.2,0.2,3.4c0.1,1.3,0.3,2.8,1.3,3.4c0.5,0.4,1.2,0.4,1.7,0.9
					c0.8,0.8,0.4,2,0.7,3C144.1,62.2,144.1,62.3,144.1,62.5z"/>
			</g>
			<path class="st8" d="M153,54.8c0-0.4-0.2-1.4-0.7-0.7c-0.1,0.2-0.2,0.4-0.2,0.6c0,0.2,0,0.5-0.1,0.7c-0.2,0.5-0.7,0.7-1.2,0.7
				c-0.2,0-0.4,0-0.6-0.1c-0.2-0.1-0.3-0.2-0.4-0.4c-0.3-0.4-0.6-0.7-0.9-1.1c-0.5-0.6-1.6-0.3-2.3-0.3c-0.8,0.1-1.7,0.4-2.3,0.9
				c-0.1,0.1-0.1,0.1-0.2,0.2c-0.2,0.1-0.3,0.3-0.5,0.4c-0.6,0.3-1.4,0-1.9-0.6c-0.2-0.3-0.4-0.6-0.7-0.7c-0.3,0-0.5,0.1-0.6,0.4
				c-0.1,0.2-0.2,0.5-0.2,0.8c-0.1,1,0.1,2,0.5,2.9c0.9,1.9,2.7,2.1,4.5,2.1c0.7,0,1.4,0,2.1-0.1c1.3,0,2.7-0.1,3.8-0.8
				c1-0.7,1.5-1.8,1.8-3C153,56.1,153,55.4,153,54.8z M148.2,57.5c-0.7,0.5-1.4,0.5-2.2,0.3c-0.3-0.1-0.2-0.6,0.1-0.5
				c0.6,0.2,1.2,0.2,1.8-0.2C148.3,56.8,148.5,57.3,148.2,57.5z"/>
			<path class="st8" d="M153.3,44.4c0.1-0.5,0.2-0.9,0.3-1.4c-0.4,0.2-0.9,0.2-1.4,0.1c0-0.3,0-0.5,0-0.8c0-0.2-3.1-0.4-3.3-0.4
				c-2.4-0.2-4.5-0.4-6.6,0.9c-1.8,1.1-3,2.7-3.3,4.8c-0.3,2,0.4,4.6,1.5,6.3c0-0.5-0.3-1.8-0.2-2.3c0.1-0.5,0.3-1,0.5-1.4
				c0.5-0.9,1.2-1.7,2.1-2.2c1.4-0.9,3-1.3,4.6-1.5c1.5-0.2,3.3-0.4,4.7,0c0.7,0.2,0.8,0.4,1.2-0.3c0.1-0.1,0.7-1.6,0.6-1.6
				C153.8,44.4,153.5,44.4,153.3,44.4z"/>
		</g>
	</g>
</g>
<g>
	<g>
		<g>
			<path class="st7" d="M162.7,72.3c-0.7,0-1.3-0.3-1.9-0.7c-2.3-1.5-3.2-4.2-4.5-6.5c-0.7-1.4-1.5-3.4-2.6-4.5
				c-0.2-0.2-2.7-1.4-2.7-1.5c0,0,0.1-0.7,0.1-0.7l0.7,0.1l0.4-0.3l-1.8-0.9l1.2-2l2.7-0.1c0.8,1.5,1.2,3.2,2.3,4.5
				c0.5,0.5,1,1,1.6,1.5c0.9,0.9,1.7,1.8,2.5,2.8c1,1.2,2.6,2.2,3.2,3.7c0.3,0.8,0.9,2.7,0.5,3.6C164.1,72,163.4,72.3,162.7,72.3z"
				/>
		</g>
	</g>
	<path class="st10" d="M164.7,69.2c0.2,0,0.3,0.1,0.5,0.2c0.1,0.1,0.2,0.3,0.2,0.5c0.2,2.1-0.2,4.3-0.5,6.4c-0.5,2.9-1.1,6-3.2,8.2
		c-1.2,1.2-3.1,2.1-4.6,1.3c-1.3-0.7-1.8-2.3-2-3.8c-0.6-4.4,0.1-9,2.1-12.9c0.1-0.3,0.3-0.5,0.5-0.7c0.6-0.4,2.4,0.2,3.1,0.4
		C162,68.8,163.3,69,164.7,69.2z"/>
</g>
<g>
	<g>
		<path class="st7" d="M130.9,60.1c0.9-0.7,1.2-1.9,0.8-3c-0.7-2-1.5-3.9-2.2-5.9c-0.4-1.1-1.2-2.4-1.2-3.6c0-2,0.7-4.3,1.1-6.3
			c0.2-1,0.3-2.4,0.8-3.3c0.1-0.2,1.4-1.4,1.4-1.4c0,0-0.2-0.4-0.2-0.4l-0.4,0.2l-0.3-0.1l1-0.9l-1.1-1l-1.7,0.5
			c-0.2,1.1-0.2,2.3-0.6,3.3c-0.2,0.4-0.5,0.8-0.7,1.2c-0.4,0.7-0.7,1.5-1,2.2c-0.3,0.7-0.8,1.4-1.1,2.1c-0.7,1.6-1.4,3.2-2.1,4.8
			l3.2,10.4C127.1,60.6,129.4,61.3,130.9,60.1z"/>
	</g>
	<path class="st10" d="M138.4,61.1c-1.3-0.6-2.5-1.3-3.5-2.2c-0.5-0.4-2.5-4.4-2.2-4.5c0,0-0.1,0-0.1,0l-0.3,0.1c0,0,0,0,0,0
		c-0.6-0.1-1.7,0.6-2.3,0.7c-2,0.6-3.9,1.3-5.9,1.7c0,1.8,0.3,3.5,0.8,5.2c0.5,1.5,1.2,2.8,1.8,4.3c0.6,1.5,1.4,2.9,2.2,4.3
		c0.2,0.3,2.1,4.4,2,4.4c1.1-0.2,2-1.1,2.7-2c1.6-2.1,2.4-5.1,4.5-6.8c1.6-1.4,3.7-1.5,3.5-4.2C140.5,61.8,139.5,61.5,138.4,61.1z"
		/>
</g>
<g>
	<g>
		<path class="st11" d="M162.4,164.7c-0.1-0.3-0.2-0.6-0.5-0.9c-0.1-0.1-0.3-0.2-0.4-0.3c-0.6-0.6-0.5-1.1-1.3-1
			c-1,0.1-1.9,0.2-2.9,0.3c0,0-0.1,0-0.1,0c0,0-0.1,0.1-0.1,0.2c-0.1,0.3-0.1,0.7-0.2,1c-0.2,0.9-1,1.1-1.7,1.5
			c-0.2,0.1-0.4,0.2-0.5,0.3c-0.8,0.4-3.1,1.2-2,2.4c0.4,0.5,1.2,0.6,1.9,0.7c0.6,0.1,1.2,0,1.8-0.1c1.9-0.3,3.7-0.8,5.4-1.6
			c0.6-0.3,0.6-1.3,0.6-1.9C162.4,165,162.4,164.8,162.4,164.7z"/>
		<g>
			<polygon class="st12" points="162.6,104.5 164.1,112.3 160.9,134.2 162,163.6 156.4,163.8 150.4,135.4 146.1,104.5 			"/>
		</g>
	</g>
	<g>
		<path class="st11" d="M136.1,165.7c0-0.3-0.1-0.7-0.2-0.9c-0.1-0.1-0.2-0.3-0.3-0.4c-0.4-0.7-0.2-1.2-1-1.3
			c-1-0.2-1.9-0.3-2.9-0.4c0,0-0.1,0-0.1,0c-0.1,0-0.1,0.1-0.1,0.1c-0.1,0.3-0.3,0.6-0.4,0.9c-0.4,0.9-1.2,0.9-2,1
			c-0.2,0-0.4,0.1-0.6,0.1c-0.8,0.2-3.3,0.4-2.5,1.9c0.3,0.6,1.1,0.9,1.7,1.1c0.6,0.2,1.2,0.3,1.8,0.4c1.9,0.2,3.7,0.2,5.6-0.2
			c0.7-0.1,0.9-1.1,1-1.7C136,166,136.1,165.9,136.1,165.7z"/>
		<g>
			<polygon class="st12" points="150.4,107.3 152.7,113.1 141.8,135.7 136,164.5 130.4,163.3 131.3,134.3 134.4,103.3 			"/>
		</g>
	</g>
</g>
<g>
	<path class="st7" d="M104.6,54c0,0.3-0.2,0.7-0.3,1c-0.4,1-0.5,2.1-0.4,3.2c1,0,2.1,0.2,3.1,0.5c0.2-0.8,0.4-1.6,0.6-2.3
		c0-0.1,0.1-0.2,0.2-0.3c0.1-0.1,0.3-0.2,0.4-0.2c0.8-0.3,1.6-0.8,2.3-1.4c0.1-0.1,0.3-0.3,0.4-0.5c0.1-0.2,0.1-0.3,0.1-0.5
		c0-1.4,0-2.8,0-4.2c0-0.2,0-0.3-0.1-0.5c-0.1-0.1-0.3-0.2-0.4-0.2c-0.2-0.1-0.5-0.2-0.7-0.3c-0.1,0-0.1-0.1-0.2-0.1
		c-0.5-0.2-0.6-0.2-1.1,0c-0.1,0-1.1,0.3-1.2,0.2c0.1,1.5-0.3,3-1.2,4.3c-0.1,0.1-0.1,0.2-0.2,0.2c-0.1,0-0.2-0.1-0.3-0.2
		c-0.3-0.4-0.6-0.8-0.8-1.2c-0.4,0.1-0.8,0.2-1.2,0.3c-0.1,0.6,0.1,1.3,0.5,1.8c0,0,0.1,0.1,0.1,0.1C104.5,53.6,104.6,53.7,104.6,54
		z"/>
	<polygon class="st13" points="108.6,56.1 103.7,55.3 98.7,68.9 87,66.9 89.6,82.5 104.5,73.6 	"/>
</g>
<g>
	<g>
		<g>
			<g>
				<path class="st3" d="M70,160.4c-0.7,0-1.4-0.2-2.1-0.3c0-2.5,0.3-5,0.9-7.5c1.1,1.2,2.1,0.5,2,2.8
					C70.7,156.3,69.8,159.3,70,160.4z"/>
				<path class="st8" d="M67.7,158.9c-0.8-0.3-1,1.7-1,2.2c0,0.3,0,0.6,0,0.8c-0.1,0.3-0.3,0.6-0.5,0.8c-0.4,0.5-0.8,1-1.2,1.5
					c-0.2,0.2-0.4,0.5-0.5,0.7c-0.2,0.7,0.2,1.5,0.8,1.8c2.3,1.1,4.3-1.6,4.8-3.4c0.1-0.3,0.1-0.6,0.2-0.8c0.1-0.6,0.6-1.9,0.3-2.4
					c-0.3-0.7-1.1-0.2-1.6-0.4C68.4,159.4,68,159,67.7,158.9z"/>
			</g>
			<path class="st14" d="M83.7,118.7c-2.1,5.7-4.5,11.3-5.9,17.4c-1.7,7.4-4.5,14.7-5.9,22.1c-0.9,0-1.8,0-2.7-0.1
				c-1-0.1-2.7-0.4-3.1-1.5c-0.2-0.6,0-1.5,0-2.1c0.1-1.9,0.2-3.9,0.4-5.8c0.4-5.5,0.7-11,1.7-16.4c1.1-5.7,2.1-11.4,3-17
				c0.5-2.9,1.1-5.8,1.8-8.7c0.2-0.7,2.1-8.4,2.5-8.3c4.6,0.7,8.8,2.2,12.8,4.6c0.4,0.2,0.8,0.5,0.9,0.9c0.1,0.4,0,0.8-0.1,1.1
				c-1.2,3.5-2.8,6.8-4,10.4C84.6,116.2,84.2,117.4,83.7,118.7z"/>
		</g>
		<g>
			<g>
				<path class="st3" d="M84.1,160c0.7,0.3,1.4,0.2,2.1,0.4c0.7-2.4,1.2-4.8,1.4-7.4c-1.4,0.9-2.1-0.1-2.8,2.1
					C84.7,155.8,84.6,159,84.1,160z"/>
				<path class="st8" d="M87,159.7c0,1.4,1.1,2.9,1.7,4.1c0.1,0.1,0.1,0.3,0.1,0.5c0,0.2-0.1,0.5-0.3,0.6c-0.2,0.3-0.4,0.6-0.7,0.7
					c-0.3,0.1-0.6,0.1-1,0c-0.5-0.1-1.1-0.3-1.6-0.4c-0.1,0-0.3-0.1-0.4-0.2c-0.1-0.1-0.2-0.3-0.3-0.4c-0.4-0.7-0.7-1.3-0.7-2.1
					c0-0.9,0.1-1.7,0-2.6c-0.1-0.4-0.2-0.9,0.2-1.2c0.3-0.2,0.8,0.1,1.1,0.1c0.5,0.1,1,0.1,1.5,0.3c0.1,0.1,0.2,0.1,0.3,0.2
					C87,159.4,87,159.5,87,159.7z"/>
			</g>
			<path class="st14" d="M83.4,116.1c0.3,6.1,1,12.2,0.5,18.3c-0.6,7.6-0.1,15.3-0.9,22.8c0.9,0.3,1.8,0.5,2.7,0.7
				c1,0.2,2.7,0.4,3.4-0.6c0.4-0.5,0.4-1.5,0.6-2c0.5-1.9,0.9-3.8,1.4-5.7c1.2-5.3,2.6-10.7,3.3-16.2c0.7-5.7,1.4-11.5,2.2-17.2
				c0.4-2.9,0.7-5.9,0.9-8.9c0-0.8,0.4-8.7,0.1-8.7c-4.6-0.7-9.1-0.5-13.6,0.6c-0.4,0.1-0.9,0.3-1.1,0.6c-0.2,0.3-0.2,0.7-0.2,1.1
				c0.1,3.7,0.6,7.4,0.8,11.1C83.3,113.4,83.3,114.7,83.4,116.1z"/>
		</g>
		<path class="st13" d="M80.8,67.1c-0.1,0-0.1,0.1-0.2,0.1c-1.2,0.5-2.3,1.3-3.3,2.1c-1.5,1.2-2.3,1.8-2.9,3.6
			c-0.6,1.7-0.9,3.5-1.2,5.3c-1.7,9.1-2.1,18.1-3.3,27.2c-0.3,2.5-0.6,5.4,1.2,7.1c3.3-2.5,7.4-2.7,11.3-2.7c2.8,0,5.5-0.9,8.3-0.6
			c2.7,0.3,5-0.4,7.7-0.2c0.7,0,1.5,0,1.7-0.6c-0.9-2.8-0.9-5.8-1.1-8.7c-0.5-7.6-3.1-14.9-4.1-22.5c-0.3-2.6-0.5-6.8-2.5-8.8
			c-2.2-2.1-7.1-2.2-9.9-1.7C81.9,66.8,81.4,66.9,80.8,67.1z"/>
		<g>
			<g>
				<g>
					<g>
						<path class="st7" d="M82.9,66.9c0,0.1,0.1,0.2,0.2,0.3c0.3,0.3,0.8,0.5,1.2,0.6c0.6,0.1,1.2,0,1.8-0.1
							c0.8-0.1,0.8-0.6,0.9-1.3c0.1-0.4,0.1-0.8,0.1-1.2c0-0.2-0.1-1,0.1-1.1c0.1-0.1,0.5-0.1,0.6-0.2c0.3-0.1,0.5-0.4,0.6-0.6
							c0.3-0.4,0.4-0.9,0.5-1.3c0.2-0.8,0.5-1.6,0.7-2.4c0.2-0.8,0.5-1.6,0.6-2.4c0.1-1.3-0.1-3-1-4c-0.9-0.8-2.1-1.1-3.3-1.3
							c-1.5-0.2-3.1,0.1-4.5,0.9c-0.5,0.3-1,0.8-1.4,1.3c-0.5,0.9-0.5,2-0.4,3.1c0,1,0.1,1.9,0.1,2.9c0.1,1.1,0.2,2.4,1,3
							c0.4,0.3,1,0.4,1.4,0.8c0.5,0.5,0.4,1.3,0.5,2C82.8,66.3,82.7,66.6,82.9,66.9z"/>
					</g>
					<path class="st8" d="M87.8,54.3c0.1,0.1,0.1,0.2,0.1,0.3c0.2,0.5,0.1,1.1,0.2,1.6c0.3,0.8,1.2,1.3,1.4,2.2
						c0.1,0.7-0.4,1.4-0.4,2.1c0,0.8,0.5,1.5,0.4,2.3c-0.1,0.7-0.5,1.6-0.9,2.1c0.1-0.2,1.2-0.1,1.5-0.3c0.4-0.3,0.5-0.4,0.6-0.9
						c0.1-0.5,0-0.9,0.2-1.4c0.2-0.6,0.8-1,0.9-1.6c0.2-0.8-0.2-1.7-0.2-2.6c0.1-1.3,1.2-2.6,0.8-3.8c-0.2-0.7-1-1.2-1.4-1.9
						c-0.3-0.5-0.4-1.1-0.6-1.6c-0.2-0.5-0.6-1.1-1.1-1.3c-0.3-0.1-0.6-0.1-1-0.1c-0.6-0.1-1-0.5-1.5-0.7c-0.8-0.3-2.1,0.5-2.6,1.2
						c-0.4,0.6-0.2,1.2,0.2,1.8C85.3,52.6,87.1,53.3,87.8,54.3z"/>
				</g>
				<path class="st8" d="M77.5,50.5c-0.5,0.3-1,0.6-1.4,1c-0.8,0.8-1,2-1,3.1c0,1-0.5,1.9-0.4,2.9c0.1,0.7,0.4,1.4,0.9,1.8
					c0.7,0.5,1.8,0.6,2.1,1.4c0.3,0.9-0.6,2,0,2.8c0.3,0.4,0.9,0.5,1.3,0.8c0.5,0.3,0.7,0.9,1,1.4c0.3,0.5,0.7,1,1.3,1
					c0-0.9,0-1.6-0.3-2.4c-0.2-0.5-0.9-1.3-0.4-1.9c0.3-0.4,1.1-0.6,1.1-1.1c0-0.2-0.2-0.5-0.3-0.7c-0.5-0.8-0.6-1.9-0.2-2.8
					c0.4-0.9,1.1-1.6,2-2c1-0.5,0.9-0.7,1.1-1.7c0.3-0.9,0.8-1.1,1.6-1.4c0.7-0.3,1-0.5,1.2-1.1c0.2-0.5,0.4-1.1,0.2-1.6
					c-0.2-0.4-0.6-0.8-1-1.1c-0.8-0.6-1.7-1.3-2.8-1.2c-0.6,0-1.1,0.3-1.7,0.3c-0.4,0-0.8-0.1-1.1-0.1c-0.6,0-1.3,0.2-1.9,0.6
					c-0.5,0.4-0.5,0.8-0.8,1.4C77.9,50.1,77.7,50.3,77.5,50.5z"/>
				<path class="st8" d="M79.8,46.8c0.1-0.6,0-1.4-0.6-1.6c-0.3-0.1-0.7,0-1-0.1c-0.7-0.1-1-1-1.3-1.6c-0.1-0.1-0.1-0.2-0.2-0.2
					c-0.1-0.1-0.3,0-0.5,0c-0.7,0.1-1.3-0.6-1.9-0.9c-0.8-0.3-1.9,0.2-2.1,1.1c-0.1,0.4-0.1,0.7-0.2,1.1c-0.4,1.4-2.5,2-2.5,3.5
					c0,1,0.9,2,0.6,2.9c-0.2,0.6-1,1-0.9,1.6c0.1,0.4,0.5,0.7,0.9,0.7c0.4,0,0.8-0.2,1.1-0.5c0.5-0.4,0.9-1,1.3-1.4
					c0.5-0.5,1.1-0.8,1.7-0.7c0.6,0.1,1.2,0.6,1.8,0.5c0.5-0.1,0.9-0.5,1.4-0.7c0.5-0.1,0.9,0.1,1.4,0.1c0.5,0,1.1-0.2,1.1-0.7
					c0-0.1,0-0.2,0-0.3c0.1-0.3,0.6-0.3,0.7-0.6c-0.2-0.4-0.6-0.2-0.8-0.7C79.6,47.7,79.7,47.2,79.8,46.8z"/>
			</g>
		</g>
	</g>
</g>
<g>
	<g>
		<g>
			<g>
				<g>
					<rect x="77.2" y="75.2" class="st15" width="97.1" height="67.4"/>
				</g>
				<g>
					<path class="st16" d="M102.6,77.3H79.4v20.6C79.4,86.5,89.8,77.3,102.6,77.3z"/>
				</g>
			</g>
		</g>
	</g>
	<g class="st17">
		<path class="st18" d="M119.6,142.6h54.7v-34.5C174.3,108.1,169.2,142.6,119.6,142.6z"/>
	</g>
</g>
<g>
	<path class="st19" d="M164.3,28.2C164.3,28.2,164.3,28.1,164.3,28.2C164.3,28.1,164.3,28.1,164.3,28.2
		C164.3,28.2,164.3,28.2,164.3,28.2z"/>
</g>
<g>
	<g>
		<g>
			<polygon class="st8" points="28.7,164.3 28.6,166.5 32.8,169 35.1,166.9 33.1,164.6 28.9,162.1 			"/>
		</g>
		<g>
			<polygon class="st8" points="26.5,97.8 26.1,104.5 32.9,133.8 28.5,163.5 32.8,164.7 45.4,129.2 45.9,118.4 43.3,96.2 			"/>
		</g>
	</g>
	<g>
		<g>
			<polygon class="st8" points="54,101.7 56.7,129.6 54.5,165.9 50.5,166.3 45.1,133.4 36.7,100.7 			"/>
		</g>
		<g>
			<polygon class="st8" points="50.4,165.8 50.6,168 55.2,169.8 57.2,167.4 54.8,165.4 			"/>
		</g>
	</g>
	<g>
		<path class="st4" d="M22.7,101.3c-0.3,2.5-0.6,6,0.4,6.2c0.2,0,0.4,0,0.5-0.1c1.8-0.7,3.1-1.9,4.9-2.6c1.8-0.8,3.9-1,5.9-1.2
			c3-0.2,6-0.3,9,0c2.3,0.2,4.7,0.6,7,1.1c1.9,0.4,3.7,1.1,5.7,1.2c2,0.1,4.1-0.3,5.9-1.2c0.1,0,0.1-0.1,0.2-0.1c0-0.1,0-0.2,0-0.2
			c-0.3-1.2-0.5-2.3-1.1-3.3c-0.7-1.1-1.2-2.5-1.7-3.8c-1-2.6-1.9-5.3-2.5-8.1c-1-3.7-2.1-7.4-3-11.1c-0.6-2.6-1.2-5.2-2.2-7.7
			c-0.8-2-2.2-4.8-4.1-5.9c-0.7-0.3-1.4-0.5-2.2-0.6c-2.2-0.3-4.5-0.6-6.7-0.9c-0.8-0.1-1.7-0.2-2.5,0c-1.2,0.4-1.9,1.5-2.6,2.5
			c-3,4.7-5.1,9.8-6.6,15.2c-0.8,2.8-1.5,5.6-2.1,8.5c-0.7,3.2-1.3,6.4-1.7,9.6C23,99.1,22.8,100.1,22.7,101.3z"/>
	</g>
	<g>
		<path class="st20" d="M40.5,75.6c0,1.3-0.4,2.5-0.7,3.8c-1.9,7.6-3.8,15.2-5.7,22.8c6.1,0.6,12.1,1.2,18.2,1.7
			c0.1-2.9,0.2-5.8,0.2-8.7c0.1-1.9,0.1-3.7-0.1-5.6c-0.3-3-1.3-5.9-2.3-8.8c-1.8-5.3-3.6-10.6-5.4-15.9c-0.1-0.3-0.2-0.6-0.4-0.8
			c-0.3-0.3-0.6-0.4-1-0.5c-1.7-0.5-3.6-0.9-5.4-0.9c-0.6,1.5,0.7,4.5,1.2,6C39.8,71.1,40.6,73.3,40.5,75.6z"/>
	</g>
	<g>
		<g>
			<path class="st7" d="M42.8,64.7c-1.2-0.2-2.5-0.4-3.7-0.6c0-1,0.2-2,0.3-3c0,0.1-1.9-1.1-2.1-1.4c-0.4-0.7-0.4-1.9-0.5-2.8
				c-0.3-1.8-0.5-3.8,0.6-5.3c1.1-1.5,3.3-1.8,5.1-1.7c2.4,0.2,4.9,1.1,5.9,3.3c0.9,1.9-0.8,4.5-1.3,6.4c-0.3,0.9-0.7,2-1.6,2.3
				c-0.5,0.2-1.1,0.1-1.5,0.3C43.2,62.8,43.2,63.9,42.8,64.7z"/>
		</g>
		<g>
			<path class="st8" d="M52.5,50.2c0.3-1.3,0.5-2.6,0.8-3.9c0.1-0.5,0.2-1,0.1-1.4c-0.2-0.8-0.9-1.4-1.7-1.6
				c-0.8-0.3-1.6-0.4-2.3-0.6c-0.8-0.3-1.6-0.7-2.5-0.8c-1.6-0.1-3.1,1.3-4.7,1.4c-2.3,0.1-4.2-1.1-5.9,1.4c-0.3,0.5-0.4,1-0.7,1.5
				c-0.4,0.6-0.9,1.1-1.4,1.6c-2,2.4-1.9,6.3,0.1,8.6c0.9,1.2,1.3,2.1,2.7,2.6c-0.5-1.4,0.9-6.6,2.8-7c0.5-0.1,1.9,0.6,2.4,0.8
				c1.2,0.3,2.3,0.6,3.3,1.2c1.6,0.8,3.3,1.5,5,1.8c0.2,0,0.5,0.1,0.7-0.1c0.2-0.1,0.2-0.4,0.3-0.6C51.8,53.4,52.2,51.8,52.5,50.2z"
				/>
		</g>
	</g>
</g>
<g>
	<g>
		<path class="st21" d="M123.4,25c-0.7-4.5,2.4-8.7,6.9-9.4c0-0.1-0.1-0.3-0.1-0.4c-0.8-5.5,3-10.6,8.5-11.4c3-0.4,5.9,0.5,8,2.3
			c1.4-2.2,3.7-3.8,6.5-4.2c4.9-0.7,9.5,2.5,10.5,7.3c0.2,0,0.4-0.1,0.6-0.1c4.5-0.7,8.8,2.4,9.4,7c0.5,3.6-1.4,7.1-4.5,8.7
			c0.6,0.9,0.9,1.9,1.1,3c0.7,4.4-2.4,8.5-6.8,9.1c-0.3,0.1-0.7,0.1-1,0.1l1.3,8.5c0,0.4-0.4,0.6-0.6,0.4l-6.5-6.7
			c-1.1,1-2.6,1.7-4.2,2c-2.9,0.4-5.7-0.8-7.5-2.9c-1.2,1.1-2.8,1.8-4.5,2.1c-4.9,0.7-9.5-2.6-10.2-7.5c0-0.2-0.1-0.4-0.1-0.6
			C126.8,31.4,124,28.7,123.4,25z"/>
		<g>
			<path class="st0" d="M139.2,23.5c1.2-0.2,1.5,1.7,0.3,1.9C138.2,25.6,138,23.7,139.2,23.5z"/>
			<path class="st0" d="M147.7,22.2c1.2-0.2,1.5,1.7,0.3,1.9C146.7,24.3,146.4,22.4,147.7,22.2z"/>
			<path class="st0" d="M158.2,20.7c1.2-0.2,1.5,1.7,0.3,1.9C157.3,22.7,157,20.8,158.2,20.7z"/>
		</g>
	</g>
</g>
<g>
	<path class="st0" d="M147.5,122.6c-0.2,1-0.6,1.9-1.2,2.8c-0.1,0.2-0.5,0.2-0.7,0c-1.1-0.8-1.9-1.7-2.6-2.6
		c-0.2-0.2,0.3-0.4,0.6-0.3c0.4,0.2,0.7,0.4,1,0.6c-1.8-3.8-3.6-8.5-10.3-9.3c-6-0.8-9.3,3.5-11.9,6.2c-2.2,2.3-4.6,4.9-8.3,6.3
		c-4,1.6-8.8,1.5-12.8,0c-4.1-1.4-7.3-4-7.2-7.1c-2.5,0.1-4.7-1.1-5.2-2.7c-0.4-1.4,0.7-3.6,3.2-3.5c0-0.1,0-0.2,0.3-0.3
		c2.8-0.5,5.5,0.7,6,2.5c0.5,1.7-0.9,3.5-3.5,3.9c-0.3,4.2,6.4,7.7,12.5,7.8c10.1,0.2,13.3-7.2,18.6-11.4c1.6-1.2,3.6-2.3,6.2-2.4
		c2.4-0.1,4.7,0.5,6.5,1.5c4.4,2.3,5.4,6.2,7.2,9.5c0.3-0.6,0.5-1.1,0.6-1.7C146.8,122.2,147.6,122.3,147.5,122.6z M94.4,118.8
		c0.1,0,0.1,0,0.2,0c0.1,0,0.2,0,0.2,0c4.9-0.7,3.2-6-1.7-5.5c0.2,0.2,0,0.5-0.4,0.4c-2.9-0.6-3.4,2.3-2.7,3.4
		C90.8,118.2,92.6,118.9,94.4,118.8z"/>
	<path class="st22" d="M90.6,133.3c-0.1-0.3-0.1-0.6-0.1-0.9c-0.1-3.6,1.8-6,5.5-5.1c1.9,0.4,3,2.8,3,4.6c0,1.2-0.4,2.5-1.4,3.2
		c-1.7,1-5.6,1.2-6.7-0.8C90.8,133.9,90.7,133.6,90.6,133.3z"/>
</g>
<g>
	<rect x="82.3" y="52.8" transform="matrix(0.5765 0.8171 -0.8171 0.5765 88.7754 -62.583)" class="st23" width="45" height="3.2"/>
	
		<rect x="87.5" y="49.1" transform="matrix(0.5765 0.8171 -0.8171 0.5765 87.9806 -68.3817)" class="st23" width="45" height="3.2"/>
	<rect x="84.9" y="50.9" transform="matrix(0.5765 0.8171 -0.8171 0.5765 88.378 -65.4823)" class="st0" width="45" height="3.2"/>
	<rect x="93.7" y="29" transform="matrix(0.5765 0.8171 -0.8171 0.5765 67.4902 -62.619)" class="st24" width="0.9" height="9.5"/>
	
		<rect x="93.2" y="28.3" transform="matrix(0.5765 0.8171 -0.8171 0.5765 66.7092 -62.512)" class="st20" width="0.9" height="9.5"/>
	
		<rect x="92.7" y="27.6" transform="matrix(0.5765 0.8171 -0.8171 0.5765 65.9255 -62.4044)" class="st24" width="0.9" height="9.5"/>
	<path class="st25" d="M85.5,29.8l3.1,4.3l7.8-5.5l-3.1-4.3c-1.3-1.9-3.9-2.3-5.7-1L86.5,24C84.6,25.3,84.2,27.9,85.5,29.8z"/>
	
		<rect x="92.2" y="26.9" transform="matrix(0.5765 0.8171 -0.8171 0.5765 65.1459 -62.2978)" class="st20" width="0.9" height="9.5"/>
	<polygon class="st26" points="124.2,68.1 116.4,73.6 127.1,80.5 	"/>
	<polygon class="st8" points="126.4,77.6 124.6,78.9 127.1,80.5 	"/>
</g>
<g>
	<path class="st27" d="M43.5,129.6c0,0,43.4,1.8,43.9,1.5c0.5-0.3,0.2-43.8-1.5-45.5C85.9,85.6,46.1,126.9,43.5,129.6z"/>
	<path class="st21" d="M85.9,129.6H41.3c1-6.7,1.8-14.7,1.7-23.6C43,98.9,43,92.8,42,86c14.8,0,29.1-0.9,43.9-0.9
		c0.6,6.2,1.1,13,1.1,20.3C87.1,114.1,86.6,122.3,85.9,129.6z"/>
	<g>
		<path class="st0" d="M62.3,103.3c-0.3-2.9-1.4-6.3-4.3-7.6c-3.3-1.5-6.9,0.1-9.9,1.5c-0.4,0.2-0.1,0.8,0.4,0.6
			c0.3-0.1,0.6-0.3,0.9-0.4c0.6,6.6-0.6,13.1-0.2,19.7c-0.1,0.1-0.1,0.3,0,0.5c0,0.1,0,0.3,0,0.4c0,0.5,0.8,0.5,0.7,0
			c0-0.2,0-0.3,0-0.5C55.9,115.4,63.1,110.2,62.3,103.3z M57.2,112.4c-2.1,1.9-4.6,3.4-7.3,4.3c-0.4-6.6,0.9-13.1,0.2-19.7
			c2.5-1.1,5.4-1.9,7.9-0.6c2.7,1.4,3.6,5.3,3.6,8.1C61.6,107.8,59.5,110.3,57.2,112.4z"/>
		<path class="st0" d="M67.8,107.5c-1.1-0.4-2.5,0.1-3.4,0.7c-1.3,0.9-2.2,2.3-2.5,3.8c-0.6,2.9,0.2,6.5,3.6,6.8
			c3.3,0.3,5.8-2.7,6.2-5.8C72,110.4,70.4,107.6,67.8,107.5z M70.9,113.5c-0.5,2.4-2.4,4.6-5,4.6c-3.2,0-3.8-3.4-3.3-5.9
			c0.2-1.1,0.8-2.2,1.7-3c0.5-0.5,1.4-1,2.3-1.1c0.1,0.1,0.2,0.3,0.4,0.2c0.2,0,0.4-0.1,0.6-0.1c0.1,0,0.2,0.1,0.2,0.1
			c0.2,0.1,0.4,0.1,0.4-0.1C70.4,108.7,71.3,111.4,70.9,113.5z"/>
		<path class="st0" d="M77.5,115.7C77.5,115.7,77.5,115.7,77.5,115.7c-0.5-0.5-1-0.2-1.2,0.2c-0.2,0.3-0.4,0.6-0.3,1
			c0.1,0.4,0.4,0.7,0.8,0.7c0.4,0,0.8-0.4,0.9-0.8c0.2-0.2,0.3-0.4,0.2-0.7C77.8,116,77.6,115.8,77.5,115.7z"/>
		<path class="st0" d="M79.2,99.5c-0.3-0.6-1.3-0.6-1.9-0.6c-0.2,0-0.4,0.2-0.4,0.4c-0.1,4.2-0.2,8.5-0.1,12.7
			c0,0.3,0.2,0.4,0.4,0.3c0,0.4,0.7,0.4,0.7,0c0.1-3.1,0.3-6.3,0.8-9.4c0.1-0.7,0.2-1.4,0.3-2.1C79.2,100.4,79.4,99.9,79.2,99.5z
			 M77.6,99.6C77.7,99.6,77.7,99.6,77.6,99.6c0.1,0.1,0.1,0.1,0,0.2c0,0.1,0,0.3-0.1,0.4C77.6,100,77.6,99.8,77.6,99.6z M77.6,102
			c0.1,0,0.1,0.1,0.2,0.1c-0.1,0.4-0.2,0.7-0.2,1C77.6,102.7,77.6,102.4,77.6,102z"/>
	</g>
</g>
<g>
	<g>
		<path class="st3" d="M52,98.8c0-0.1-0.1-0.2-0.1-0.2c-0.4-0.6-1-0.7-1.6-1.1c-0.3-0.2-0.2-1.1-0.8-0.8c-0.2,0.1-0.8,0.4-1.3,0.6
			c-0.8,0.3-1.9,0.2-2.7-0.1c-1.2-0.3-2.4-0.7-3.5-1.2c-2.3-1.1-4.7-2.5-6.8-4c2.3-3.5,2.4-8.3,0.3-12c-0.2-0.4-0.5-0.8-0.9-1
			c-0.3-0.2-0.7-0.3-1.1-0.3c-3.9-0.3-4,3.5-4.2,6.5c-0.1,1.9-0.1,3.8,0,5.6c0.2,2.6,1.9,4.1,4.2,5.4c2.4,1.3,4.8,2.6,7.4,3.4
			c1.3,0.4,2.5,0.5,3.8,0.7c1.3,0.2,1.1,0.8,2.2,1.2c0.6,0.3,1.2,0.6,1.8,0.8c1.1,0.3,2.1-0.5,2.9-1.1c0.2-0.2,0.4-0.3,0.5-0.5
			c0.2-0.4,0.1-0.7,0.1-1.1C52.1,99.2,52.1,99,52,98.8z"/>
	</g>
	<g>
		<path class="st4" d="M27.3,86.5c0.1,1.4,0.2,2.9,0.3,4.2c0.3,2,0.6,4.2,2.1,5.6c0.6,0.5,1.3,0.9,2,1.3c3.3,1.8,6.6,3.4,10,5
			c1.2-1.5,2.2-3.2,3-5.1c0.2-0.5,0.4-1.1,0.2-1.6c-0.3-0.8-1.2-1.1-1.9-1.3c-1.3-0.4-2.6-0.7-3.8-1.1c-0.4-0.1-0.9-0.3-1.1-0.6
			c-0.1-0.2-0.2-0.5-0.2-0.8c-0.1-5.3,0.8-9.8,2.1-14.9c0.5-2.3,1.1-4.6,0.6-6.9c-1-4.9-7.4-6.2-9.9-1.6
			C27.9,73.8,27.1,80.4,27.3,86.5z"/>
	</g>
</g>
<g>
	<g>
		<g>
			<path class="st3" d="M166.8,89.4c0.2-0.3,0.3-0.4,0.7-0.5c0.4-0.2,0.8-0.2,1.2-0.5c0.3-0.2,0.2-1,1-0.7c0.3,0.1,0.7,0.4,1.3,0.6
				c0.8,0.3,1.8,0.3,2.7,0.1c3.6-0.8,7.2-1.5,10.8-1.9c0.2,0,0.4,0,0.6-0.2c0.3-0.2,0.4-0.6,0.4-0.9c0.4-1.6,0.8-3.2,1.5-4.8
				c0.6-1.4,1.3-2.7,2.5-3.7c1.2-1,2.7-1.5,4.1-1c1.1,0.3,2,1.1,2.2,2.2c0.6,2.8-2,4.8-3.5,6.8c-1.4,1.8-2.7,3.4-4.2,5.1
				c-0.2,0.2-0.4,0.4-0.6,0.5c-0.3,0.1-0.6,0.1-0.8,0.1c-3.7,0-7.2-0.2-10.8,0.6c-1,0.2-1.9,0-2.8,0.3c-0.6,0.2-0.9,0.8-1.4,1.1
				c-0.5,0.3-1.2,0.6-1.8,0.6c-1.2,0.1-1.9-0.8-2.8-1.5c-0.7-0.6-1.1-0.7-2-0.5c-0.1,0-0.2,0.1-0.3,0.1c-0.3-0.1-0.5-0.5-0.3-0.8
				c0.2-0.3,0.5-0.4,0.8-0.5c0.3-0.1,0.7-0.2,1-0.2c0.1,0,0.3,0,0.4-0.1C166.7,89.6,166.7,89.5,166.8,89.4z"/>
		</g>
		<g>
			<path class="st28" d="M192.2,84c-2.1-0.8-4.2-1.3-6.2-2.2c0.7-1.7,2.8-8.9,3.2-9.7c1.4-3.3,1.7-4.7,3.6-6.4
				c4.1-3.7,8.9-1.2,8.7,4c-0.2,5.6-3.2,10.5-6.5,14.9c-0.1,0.1-0.2,0.2-0.3,0.2c-0.1,0-0.3,0-0.5-0.1
				C193.5,84.4,192.9,84.2,192.2,84z"/>
		</g>
	</g>
	<g>
		<g>
			<g>
				<g>
					<g>
						<path class="st3" d="M193.5,161.7c-0.7,0-1.4-0.1-2.1-0.2c-0.4-7,0.3-14.4,0.6-21.4c1.8,0.1,3.6,0.2,5.4,0.3
							c-1.3,3.8-2.2,7.7-2.7,11.6C194.6,152.6,193.6,161.7,193.5,161.7z"/>
					</g>
					<g>
						<path class="st8" d="M191.2,160.1c-0.4-0.1-0.7,0.1-1,0.4c-0.2,0.2-0.3,0.4-0.5,0.5c-0.2,0.1-0.4,0.1-0.7,0.2
							c-1.3,0.1-4.3,0.1-2.7,2.3c1.5,2,5.3,1.2,7.5,0.7c0.1,0,0.3-0.1,0.4-0.2s0.2-0.3,0.2-0.4c0.3-0.9,0.6-2.1-0.5-2.5
							c-0.5-0.2-0.9,0.2-1.5,0C192,160.8,191.6,160.2,191.2,160.1z"/>
					</g>
				</g>
			</g>
			<path class="st8" d="M187.9,144.3c3.7-0.1,7.4-0.1,11-0.2c3-14.2,5.6-28.4,7.9-42.7c0.2-1.1,0.3-2.3,0-3.3
				c-0.6-2-2.8-3.2-4.9-3.6c-3.2-0.6-9.2,0.2-10.9,3.6c-1.8,3.6-1.5,9.9-1.9,13.9C188.1,122.7,187.6,133.5,187.9,144.3z"/>
		</g>
		<g>
			<g>
				<g>
					<g>
						<path class="st3" d="M214.5,161.7c0.7,0,1.4-0.1,2.1-0.2c0.4-7-0.3-14.4-0.6-21.4c-1.8,0.1-3.6,0.2-5.4,0.3
							c1.3,3.8,2.2,7.7,2.7,11.6C213.4,152.6,214.4,161.7,214.5,161.7z"/>
					</g>
					<g>
						<path class="st8" d="M216.9,160.1c0.4-0.1,0.7,0.1,1,0.4c0.2,0.2,0.3,0.4,0.5,0.5c0.2,0.1,0.4,0.1,0.7,0.2
							c1.3,0.1,4.3,0.1,2.7,2.3c-1.5,2-5.3,1.2-7.5,0.7c-0.1,0-0.3-0.1-0.4-0.2c-0.1-0.1-0.2-0.3-0.2-0.4c-0.3-0.9-0.6-2.1,0.5-2.5
							c0.5-0.2,0.9,0.2,1.5,0C216,160.8,216.4,160.2,216.9,160.1z"/>
					</g>
				</g>
			</g>
			<path class="st8" d="M220.1,144.3c-3.7-0.1-7.4-0.1-11-0.2c-3-14.2-5.6-28.4-7.9-42.7c-0.2-1.1-0.3-2.3,0-3.3
				c0.6-2,2.8-3.2,4.9-3.6c3.2-0.6,9.2,0.2,10.9,3.6c1.8,3.6,1.5,9.9,1.9,13.9C220,122.7,220.4,133.5,220.1,144.3z"/>
		</g>
	</g>
	<g>
		<path class="st21" d="M210.7,66.6c2.9,2.8,5.2,6.4,6.5,10.1c2.4,6.6,2.4,13.7,2.4,20.6c0,2.3,0,4.6,0,6.9c0,2.3-0.2,2.8-2.7,2.5
			c-4.6-0.6-9.3-1.5-13.4-3.5c-2-1-3.8-2.2-5.9-2.9c-3-1.1-6.1-0.6-9-1.3c1.3-3.9,2.2-7.2,2.9-11.2c0.7-4.1,1.3-8.6,2.3-12.7
			c0.6-2.4,1.7-4.7,2.8-7c0.8-1.5,1.6-3.1,2.9-4.2C203.4,60.6,207.7,63.8,210.7,66.6z"/>
	</g>
	<g>
		<g>
			<g>
				<path class="st3" d="M200,56.9c0.6,1.2,1.5,2.2,2.2,3.3c0.7,1.1,1,2.1,1.2,3.3c0.1,0.9,0.5,1.6,1.6,1.8c2.1,0.3,1.5-1.4,1.9-2.6
					c0.5-1.4,1.7-2.5,2.5-3.8c2.3-3.7,1.6-10.9-3.1-12.4C201,44.8,198.3,53.2,200,56.9z"/>
			</g>
		</g>
		<g>
			<path class="st8" d="M208.4,53.4c0.6,0,1.2,0.1,1.7,0.5c0.4,0.4,0.4,1.3-0.2,1.4c-0.5,0.1-1.2-0.5-1.5-0.1
				c-0.2,0.2,0,0.6,0.1,0.9c0.5,1.1,0.7,2.3,0.5,3.4c0.2,0.2,0.6,0,0.7-0.2c0.9-1,1.7-2.3,2.2-3.6c0.2,0.3,0.5,0.6,0.8,0.8
				c-0.2-0.5-0.1-1,0-1.5c0.4-1.8,0.8-4-0.5-5.5c-0.7-0.8-1.7-1.3-2.8-1.5c-1.1-0.2-2.1-0.1-3.2-0.1c-0.5,0-1,0.1-1.1,0.5
				c1,0.4,2,1.2,2.5,2.1C207.7,50.7,208.3,53.4,208.4,53.4z"/>
		</g>
		<g>
			<path class="st8" d="M206.3,48.9c0,0,0.1,0.1,0.1,0.1c0.5,0.3,0.9,0.8,1.4,0.9c0.8,0.2,1.6-0.2,2.4,0.1c0.9,0.3,1.4,1.3,2.1,2
				c1,1,2.3,1.7,3.7,2.2c0.7,0.2,1.4,0.3,2.2,0.4c0.3,0,0.8,0.1,1.1,0c0.4-0.1,0.4-0.3,0-0.5c-1.5-0.5-1.9-2.5-1.8-3.9
				c0.1-1.1,0.5-2.2,0-3.2c-0.3-0.8-1-1.2-1.6-1.6c-0.7-0.5-1.5-0.4-2.3-0.6c-0.8-0.2-1.5-0.9-2.4-1.1c-0.9-0.2-1.8,0.2-2.7,0.4
				c-0.8,0.1-1.5,0.1-2.3,0c-0.7-0.1-1.3-0.4-2-0.4c-1,0-2,0.6-2.5,1.5c-0.8,1.2-1.4,3.2-1.1,4.7c0-0.2,0.8-1.1,0.9-1.3
				c0.3-0.4,0.8-0.8,1.3-0.8C203.9,47.6,205.3,48.2,206.3,48.9z"/>
		</g>
	</g>
	<g>
		<path id="XMLID_76_" class="st29" d="M181.6,120.1l-0.3,3.1c-0.1,1,0.6,1.9,1.4,1.9l7.2,0.7c0.9,0.1,1.7-0.7,1.8-1.7l0.3-3.1
			L181.6,120.1z"/>
		<path class="st30" d="M208,81.1c1-10.8-6-20.2-15.6-21.1c-9.6-0.9-18.2,7.1-19.2,17.9c-0.3,3.8,0.3,7.5,1.7,10.6l0,0
			c4,9.5,4.4,17.2,4.4,17.2l8.8,0.8l8.8,0.8c0,0,1.8-7.5,7.5-16.2l0,0C206.3,88.4,207.6,84.9,208,81.1z"/>
		<path class="st31" d="M179.1,105.8l-1.2,13c0,0.5,0.3,1,0.8,1.1l16.2,1.5c0.5,0,0.9-0.4,0.9-0.9l1.2-13L179.1,105.8z"/>
		<path class="st32" d="M208,77.4c-5.3,9.3-15.3,23.4-28.7,28.3c0,0,0,0.1,0,0.1l8.8,0.8l8.8,0.8c0,0,1.8-7.5,7.5-16.2l0,0
			c2-2.9,3.3-6.3,3.6-10.2C208.1,79.8,208.1,78.6,208,77.4z"/>
		<g>
			<path class="st33" d="M175.8,79.8c0.9-9.4,8.4-16.4,16.7-15.6c4.9,0.4,9,3.4,11.4,7.7c-2.2-5.3-6.8-9.2-12.4-9.7
				c-8.4-0.8-15.9,6.2-16.7,15.6c-0.4,3.9,0.5,7.6,2.2,10.7C176,85.8,175.6,82.8,175.8,79.8z"/>
		</g>
		<g>
			<polygon class="st34" points="184.7,106.3 184.9,81.1 187.5,84.1 190.5,79.8 192.7,84.5 195.9,82.1 191.5,106.9 192.4,107 
				197.1,79.9 193.1,83 190.7,78 187.5,82.6 184,78.7 183.8,106.2 			"/>
		</g>
		<g>
			<path class="st35" d="M183.8,103.7l0,2.5l0.9,0.1l0-3.1C184.4,103.3,184.1,103.5,183.8,103.7z"/>
			<path class="st35" d="M193.3,96.7l-1.8,10.2l0.9,0.1l2-11.4C194,96,193.6,96.3,193.3,96.7z"/>
		</g>
		<g>
			
				<rect x="186.5" y="102" transform="matrix(9.061559e-02 -0.9959 0.9959 9.061559e-02 60.1203 287.8565)" class="st36" width="2.4" height="18"/>
			
				<rect x="186" y="107.1" transform="matrix(9.061416e-02 -0.9959 0.9959 9.061416e-02 54.5908 292.0542)" class="st36" width="2.4" height="18"/>
		</g>
		<g>
			<path class="st37" d="M188.2,115l8.1,0.7l0.2-2.7l-5-0.5C190.4,113.5,189.3,114.3,188.2,115z"/>
			<path class="st37" d="M196.8,110.6l0.3-3.2l-0.3,0c-0.4,0.6-1.4,1.7-2.8,3L196.8,110.6z"/>
			<path class="st37" d="M178.7,119.8l16.2,1.5c0.5,0,0.9-0.4,0.9-0.9l0.2-2.2l-11.7-1.1c-2.5,1.1-4.7,1.7-6.4,1.9
				C178,119.4,178.3,119.8,178.7,119.8z"/>
			<path class="st29" d="M191.5,112.6l5,0.5l0.2-2.4l-2.8-0.3C193.2,111.2,192.3,111.9,191.5,112.6z"/>
			<path class="st29" d="M184.4,117.1l11.7,1.1l0.2-2.4l-8.1-0.7C186.9,115.9,185.6,116.5,184.4,117.1z"/>
		</g>
		<path class="st38" d="M191.8,122.9c-2.2,2-6.2,2.3-7.4,2.3l5.6,0.5c0.9,0.1,1.7-0.7,1.8-1.7L191.8,122.9z"/>
	</g>
	<g>
		<g>
			<path class="st3" d="M196.1,95.1c0-0.1,0.1-0.1,0.1-0.2c0.4-0.5,0.9-0.6,1.4-1c0.2-0.2,0.2-0.9,0.7-0.7c0.2,0.1,0.7,0.3,1.1,0.5
				c0.7,0.2,1.6,0.1,2.4-0.1c1-0.3,2.1-0.6,3-1.1c1-0.5,2-1,2.9-1.5c0.8-0.5,2-1,2.6-1.7c1-1.2-0.2-4.1-0.3-5.5
				c-0.1-1.5,0-6.1,2.1-6.2c3.4-0.2,3.5,3,3.6,5.6c0.1,1.6,0.1,3.3-0.1,4.9c-0.2,2.3-1.7,3.6-3.6,4.6c-2.1,1.1-4.2,2.3-6.4,2.9
				c-1.1,0.3-2.2,0.4-3.3,0.6c-1.1,0.2-1,0.7-1.9,1.1c-0.5,0.2-1,0.6-1.6,0.7c-1,0.2-1.8-0.5-2.5-1c-0.2-0.1-0.3-0.2-0.4-0.4
				c-0.2-0.3-0.1-0.6,0-1C196,95.4,196.1,95.2,196.1,95.1z"/>
		</g>
		<g>
			<path class="st21" d="M215.8,84.1c-1.9,0.4-3.8,0.7-5.8,1.1c0.1,0-2.2-8.6-2.3-9.1c-0.5-2-0.9-4-0.5-6c0.9-4.2,2.9-5.3,5.5-0.8
				c2.4,4.2,6.2,9.2,5.5,14c0,0.1,0,0.2-0.1,0.3c-0.1,0.1-0.2,0.1-0.4,0.2C217,83.8,216.4,84,215.8,84.1z"/>
		</g>
	</g>
</g>
<path class="st39" d="M96.5,85c-1.4,1.1-2.7,2.2-4.1,3.3c0.7,1.1,1.4,2.1,2,3.2c0.3,0.5-0.6,1-0.9,0.4c-0.6-1-1.3-2-1.9-3
	c-1.3,1.1-2.7,2.1-4,3.2c-0.5,0.4-1.1-0.4-0.6-0.7c1.4-1.1,2.7-2.2,4.1-3.3c-0.8-1.2-1.6-2.4-2.5-3.6c-0.4-0.5,0.4-1.2,0.7-0.6
	c0.9,1.2,1.7,2.4,2.5,3.6c1.3-1.1,2.7-2.1,4-3.2C96.4,83.9,97,84.7,96.5,85z"/>
<line class="st40" x1="99.2" y1="86" x2="154.1" y2="86"/>
<line class="st40" x1="99.7" y1="92.1" x2="154.5" y2="92.1"/>
<rect x="88.4" y="84.2" class="st40" width="8.1" height="8.1"/>
<g>
	<g>
		<g>
			<g>
				<path class="st41" d="M154.1,116.3c0,2.5-3.9,9.1-3.9,9.1s-4-6.6-4-9.1c0-2.5,1.7-4.5,3.9-4.6
					C152.3,111.7,154.1,113.8,154.1,116.3z"/>
				<path class="st0" d="M152,116.1c0,1.2-0.8,2.1-1.8,2.1c-1,0-1.9-0.9-1.9-2.1c0-1.2,0.8-2.1,1.8-2.1
					C151.2,114,152,114.9,152,116.1z"/>
			</g>
			<path class="st42" d="M146.9,116.7c0-2.2,1.5-3.9,3.4-4c1.1,0,2.1,0.6,2.7,1.5c-0.6-1.2-1.7-2-3-2c-1.9,0-3.4,1.8-3.4,4
				c0,0.9,0.3,1.7,0.7,2.4C147.1,118.1,146.9,117.4,146.9,116.7z"/>
			<path class="st43" d="M149.3,123.7c0.5,1,0.9,1.7,0.9,1.7s3.9-6.6,3.9-9.1c0-0.1,0-0.3,0-0.4c-0.2,0.7-0.4,1.4-0.6,2
				c-0.7,1.8-1.8,2.9-3,4.4C150.1,122.8,149.7,123.2,149.3,123.7z"/>
		</g>
	</g>
</g>
<line class="st40" x1="99.2" y1="97.9" x2="154.1" y2="97.9"/>
<line class="st40" x1="99.7" y1="104" x2="138.1" y2="104"/>
<rect x="88.4" y="96.1" class="st40" width="8.1" height="8.1"/>
</svg>
