<?xml version="1.0" encoding="utf-8"?>
<!-- Generator: Adobe Illustrator 22.1.0, SVG Export Plug-In . SVG Version: 6.00 Build 0)  -->
<svg version="1.1" id="Capa_1" xmlns="http://www.w3.org/2000/svg" xmlns:xlink="http://www.w3.org/1999/xlink" x="0px" y="0px"
	 viewBox="0 0 469.3 469.3" style="enable-background:new 0 0 469.3 469.3;" xml:space="preserve">
<style type="text/css">
	.st0{display:none;}
</style>
<g>
	<path d="M434.4,253.6c0-68-34.1-128.1-86.2-164.3l3.4-5.2l47,31.2c1.2,0.8,2.7,1.3,4.1,1.3c0.5,0,1,0,1.5-0.1
		c2-0.4,3.7-1.5,4.8-3.2c20.4-30.7,13.8-71.6-14-94.6l4.7-7.1c2.3-3.5,1.3-8.1-2.1-10.4c-3.5-2.3-8.1-1.3-10.4,2.1l-4.7,7.1
		c-14.5-7.6-31-10-47.2-6.7c-18.7,3.8-34.8,14.6-45.4,30.5c-2.3,3.5-1.3,8.1,2.1,10.4l47,31.2l-3.6,5.4C308,65,276.1,55.2,242.1,54
		V36.8h19.5c4.1,0,7.5-3.4,7.5-7.5s-3.4-7.5-7.5-7.5h-54c-4.1,0-7.5,3.4-7.5,7.5s3.4,7.5,7.5,7.5h19.5V54
		c-34,1.3-65.9,11.1-93.5,27.3l-3.6-5.4l47-31.2c1.7-1.1,2.8-2.8,3.2-4.8s0-4-1.1-5.6C158.8,3.6,118.6-6.2,86.7,10.5l-4.7-7.1
		C79.6-0.1,75-1,71.5,1.3c-3.5,2.3-4.4,6.9-2.1,10.4l4.7,7.1c-27.8,23-34.4,63.8-14,94.6c1.4,2.2,3.8,3.4,6.3,3.4
		c1.4,0,2.9-0.4,4.1-1.3l47-31.2l3.4,5.2c-52,36.1-86.2,96.3-86.2,164.3c0,70.5,36.7,132.6,92.1,168.2l-20.1,36.3
		c-2,3.6-0.7,8.2,2.9,10.2c1.2,0.6,2.4,0.9,3.6,0.9c2.6,0,5.2-1.4,6.6-3.9l19.9-35.9c28.2,15.3,60.5,24,94.8,24s66.6-8.7,94.8-24
		l19.9,35.9c1.4,2.5,3.9,3.9,6.6,3.9c1.2,0,2.5-0.3,3.6-0.9c3.6-2,4.9-6.6,2.9-10.2l-20.1-36.3C397.7,386.3,434.4,324.2,434.4,253.6
		z M338.4,18.5c14.8-3,29.8,0,42.4,8.3c23.8,15.8,31.8,46.7,19.6,71.7l-93.2-61.9C315.2,27.3,326.1,21,338.4,18.5z M68.9,98.5
		c-12.2-25-4.3-55.9,19.6-71.7c9.6-6.4,20.4-9.4,31.1-9.4c15.9,0,31.6,6.7,42.6,19.2L68.9,98.5z M234.6,438.4
		c-101.9,0-184.8-82.9-184.8-184.8S132.7,68.8,234.6,68.8s184.8,82.9,184.8,184.8S336.5,438.4,234.6,438.4z"/>
	<path class="st0" d="M139.6,297.2h13.5c4.1,0,7.5-3.4,7.5-7.5s-3.4-7.5-7.5-7.5h-13.5c-11.6,0-21,9.4-21,21s9.4,21,21,21
		c3.3,0,6,2.7,6,6c0,3.3-2.7,6-6,6h-13.5c-4.1,0-7.5,3.4-7.5,7.5s3.4,7.5,7.5,7.5h13.5c11.6,0,21-9.4,21-21c0-11.6-9.4-21-21-21
		c-3.3,0-6-2.7-6-6S136.3,297.2,139.6,297.2z"/>
	<path class="st0" d="M333.4,297.2h13.5c4.1,0,7.5-3.4,7.5-7.5s-3.4-7.5-7.5-7.5h-13.5c-11.6,0-21,9.4-21,21s9.4,21,21,21
		c3.3,0,6,2.7,6,6c0,3.3-2.7,6-6,6h-13.5c-4.1,0-7.5,3.4-7.5,7.5s3.4,7.5,7.5,7.5h13.5c11.6,0,21-9.4,21-21c0-11.6-9.4-21-21-21
		c-3.3,0-6-2.7-6-6S330.1,297.2,333.4,297.2z"/>
	<path class="st0" d="M249.7,336.1h-19.5v-46.5c0-4.1-3.4-7.5-7.5-7.5s-7.5,3.4-7.5,7.5v54c0,4.1,3.4,7.5,7.5,7.5h27
		c4.1,0,7.5-3.4,7.5-7.5S253.9,336.1,249.7,336.1z"/>
	<path class="st0" d="M295.9,297.2c4.1,0,7.5-3.4,7.5-7.5s-3.4-7.5-7.5-7.5h-27c-4.1,0-7.5,3.4-7.5,7.5v54c0,4.1,3.4,7.5,7.5,7.5h27
		c4.1,0,7.5-3.4,7.5-7.5s-3.4-7.5-7.5-7.5h-19.5v-12h7.7c4.1,0,7.5-3.4,7.5-7.5s-3.4-7.5-7.5-7.5h-7.7v-12H295.9z"/>
	<path class="st0" d="M187.2,282.2c-11.6,0-21,9.4-21,21v40.5c0,4.1,3.4,7.5,7.5,7.5s7.5-3.4,7.5-7.5v-10.7h12v10.7
		c0,4.1,3.4,7.5,7.5,7.5s7.5-3.4,7.5-7.5v-40.5C208.2,291.6,198.8,282.2,187.2,282.2z M181.2,317.9v-14.7c0-3.3,2.7-6,6-6s6,2.7,6,6
		v14.7H181.2z"/>
	<path class="st0" d="M294,196.3h22.8c4.1,0,7.5-3.4,7.5-7.5s-3.4-7.5-7.5-7.5h-15.3v-7.8h5.3c4.1,0,7.5-3.4,7.5-7.5
		s-3.4-7.5-7.5-7.5h-5.3v-7.8h15.3c4.1,0,7.5-3.4,7.5-7.5s-3.4-7.5-7.5-7.5H294c-4.1,0-7.5,3.4-7.5,7.5v45.5
		C286.5,192.9,289.8,196.3,294,196.3z"/>
	<path class="st0" d="M172,188.8v-38h8.3c4.1,0,7.5-3.4,7.5-7.5s-3.4-7.5-7.5-7.5h-31.7c-4.1,0-7.5,3.4-7.5,7.5s3.4,7.5,7.5,7.5h8.3
		v38c0,4.1,3.4,7.5,7.5,7.5S172,192.9,172,188.8z"/>
	<path class="st0" d="M205.2,135.7c-4.1,0-7.5,3.4-7.5,7.5v45.5c0,4.1,3.4,7.5,7.5,7.5s7.5-3.4,7.5-7.5v-45.5
		C212.7,139.1,209.3,135.7,205.2,135.7z"/>
	<path class="st0" d="M233.5,196.3c4.1,0,7.5-3.4,7.5-7.5v-24.1l3.5,4.4c1.4,1.8,3.6,2.8,5.9,2.8s4.4-1,5.9-2.8l3.5-4.4v24.1
		c0,4.1,3.4,7.5,7.5,7.5s7.5-3.4,7.5-7.5v-45.5c0-3.2-2-6-5-7.1c-3-1.1-6.4-0.1-8.3,2.4l-11,13.8l-11-13.8c-2-2.5-5.3-3.5-8.3-2.4
		c-3,1.1-5,3.9-5,7.1v45.5C226,192.9,229.4,196.3,233.5,196.3z"/>
	<path class="st0" d="M273.8,263.9v-4.8l10.5,10.2c1.5,1.4,3.3,2.1,5.2,2.1c2,0,3.9-0.8,5.4-2.3c2.9-3,2.8-7.7-0.1-10.6l-11-10.7
		c7.4-2.5,12.7-9.5,12.7-17.8c0-10.4-8.4-18.8-18.8-18.8h-11.3c-4.1,0-7.5,3.4-7.5,7.5v45.2c0,4.1,3.4,7.5,7.5,7.5
		S273.8,268,273.8,263.9z M273.8,226.2h3.8c2.1,0,3.8,1.7,3.8,3.8s-1.7,3.8-3.8,3.8h-3.8V226.2z"/>
	<path class="st0" d="M232.4,271.4c10.4,0,18.8-8.4,18.8-18.8V230c0-10.4-8.4-18.8-18.8-18.8s-18.8,8.4-18.8,18.8v22.6
		C213.6,263,222,271.4,232.4,271.4z M228.6,230c0-2.1,1.7-3.8,3.8-3.8s3.8,1.7,3.8,3.8v22.6c0,2.1-1.7,3.8-3.8,3.8s-3.8-1.7-3.8-3.8
		V230z"/>
	<path class="st0" d="M202.3,211.2h-22.6c-4.1,0-7.5,3.4-7.5,7.5v45.2c0,4.1,3.4,7.5,7.5,7.5s7.5-3.4,7.5-7.5v-12.5h3.8
		c4.1,0,7.5-3.4,7.5-7.5s-3.4-7.5-7.5-7.5h-3.8v-10.1h15.1c4.1,0,7.5-3.4,7.5-7.5S206.5,211.2,202.3,211.2z"/>
	<path d="M402.8,253.6C402.8,253.6,402.8,253.6,402.8,253.6c0-92.8-75.5-168.2-168.2-168.2c0,0,0,0,0,0c0,0,0,0,0,0
		c-92.7,0-168.2,75.5-168.2,168.2c0,92.7,75.5,168.2,168.2,168.2C327.4,421.8,402.8,346.4,402.8,253.6
		C402.8,253.6,402.8,253.6,402.8,253.6z M242.1,406.7v-18.4c0-4.1-3.4-7.5-7.5-7.5s-7.5,3.4-7.5,7.5v18.4
		c-78.5-3.8-141.7-67-145.5-145.5h18.4c4.1,0,7.5-3.4,7.5-7.5s-3.4-7.5-7.5-7.5H81.6c3.8-78.5,67-141.7,145.5-145.5v18.4
		c0,4.1,3.4,7.5,7.5,7.5s7.5-3.4,7.5-7.5v-18.4c78.5,3.8,141.7,67,145.5,145.5h-18.4c-4.1,0-7.5,3.4-7.5,7.5s3.4,7.5,7.5,7.5h18.4
		C383.8,339.7,320.7,402.8,242.1,406.7z"/>
</g>
<g>
	<path d="M222.6,146.9c-1.1,0-4.3-0.3-9.4-1c-0.3,4.4-0.5,10.2-0.5,17.4l0,16c3.2-0.1,6.4-0.1,9.7-0.1c1.4,0,2.6,0.5,3.5,1.4
		c0.9,1,1.4,2.1,1.4,3.4c0,1.3-0.5,2.5-1.4,3.4c-1,0.9-2.2,1.4-3.6,1.4c-1.4,0-3.4,0-6.1,0.1c-2.7,0.1-4.8,0.1-6.1,0.1
		c-1.6,0-4,0.2-7.2,0.6c-3.2,0.4-5.6,0.6-7.2,0.6c-1.5,0-2.7-0.5-3.6-1.4c-1-0.9-1.4-2.1-1.4-3.4c0-1.3,0.5-2.5,1.5-3.4
		c1-1,2.3-1.4,3.8-1.4c1.7,0,4-0.2,6.8-0.5c0-2.8-0.1-8.2-0.1-16.1c0-6.5,0.2-12.6,0.7-18.5l-7.7,0.2c-1.4,0-2.6-0.5-3.6-1.4
		c-1-0.9-1.4-2.1-1.4-3.5c0-1.4,0.5-2.5,1.4-3.4c0.9-0.8,1.9-1.3,3.1-1.4c2-0.2,5.5-0.3,10.6-0.3c4.5,0,10.3,0.5,17.4,1.5
		c2.8,0.4,4.2,2,4.2,4.9c0,1.5-0.5,2.7-1.6,3.6C224.8,146.5,223.8,146.9,222.6,146.9z"/>
	<path d="M275.4,146.3c-1.9,0-4.7-0.1-8.7-0.4c-3.8-0.3-6.7-0.4-8.7-0.4c0.1,2.7,0.4,7.5,1,14.5c0.5,6.1,0.7,11,0.7,14.5
		c0,0.8,0.1,2,0.3,3.6c0.2,1.6,0.2,2.8,0.2,3.6c0,1.8-0.4,3.4-1.1,4.8c-1,1.8-2.4,2.7-4.2,2.7c-1.3,0-2.5-0.4-3.5-1.2
		c-1.1-0.9-1.7-2.1-1.7-3.5c0-0.3,0.1-0.8,0.2-1.5c0.1-0.7,0.2-1.2,0.2-1.6c0-1.1-0.1-2.7-0.2-5s-0.2-3.9-0.2-5
		c0-3.2-0.2-7.5-0.7-12.9c-0.6-6.2-0.9-10.6-1-12.9h-1.9c-5.3,0-9.5-0.4-12.6-1.1c-2.6-0.6-4-2.2-4-4.7c0-1.2,0.4-2.3,1.3-3.3
		c1-1.2,2.3-1.7,3.9-1.6c0.8,0,2.7,0.2,5.7,0.6c2.4,0.3,4.3,0.4,5.7,0.4c1.4,0,3.6,0,6.5-0.1c2.9,0,5.1-0.1,6.5-0.1
		c1.8,0,4.5,0.1,8.1,0.4c3.6,0.2,6.3,0.4,8.1,0.4c1.4,0,2.6,0.5,3.6,1.4c1,0.9,1.4,2.1,1.4,3.4s-0.5,2.5-1.4,3.4
		C278,145.8,276.8,146.3,275.4,146.3z"/>
	<path d="M222.7,234.5c-1.1,0-4.3-0.3-9.4-1c-0.3,4.4-0.5,10.2-0.5,17.4l0,16c3.2-0.1,6.4-0.1,9.7-0.1c1.4,0,2.6,0.5,3.5,1.4
		c0.9,1,1.4,2.1,1.4,3.4s-0.5,2.5-1.4,3.4c-1,0.9-2.2,1.4-3.6,1.4c-1.4,0-3.4,0-6.1,0.1c-2.7,0.1-4.8,0.1-6.1,0.1
		c-1.6,0-4,0.2-7.2,0.6c-3.2,0.4-5.6,0.6-7.2,0.6c-1.5,0-2.7-0.5-3.6-1.4c-1-0.9-1.4-2.1-1.4-3.4s0.5-2.5,1.5-3.4
		c1-1,2.3-1.4,3.8-1.4c1.7,0,4-0.2,6.8-0.5c0-2.8-0.1-8.2-0.1-16.1c0-6.5,0.2-12.6,0.7-18.5l-7.7,0.2c-1.4,0-2.6-0.5-3.6-1.4
		c-1-0.9-1.4-2.1-1.4-3.5c0-1.4,0.5-2.5,1.4-3.4c0.9-0.8,1.9-1.3,3.1-1.4c2-0.2,5.5-0.3,10.6-0.3c4.5,0,10.3,0.5,17.4,1.5
		c2.8,0.4,4.2,2,4.2,4.9c0,1.5-0.5,2.7-1.6,3.6C224.9,234.1,223.8,234.5,222.7,234.5z"/>
	<path d="M249.6,278.8c-6,0-10.8-1.3-14.3-4c-2.9-2.2-4.4-4.8-4.4-7.7c0-1.5,0.5-2.7,1.4-3.7c0.9-1,2.2-1.5,3.7-1.5
		c2.1,0,3.7,1.1,4.7,3.3c1.4,2.9,4.4,4.4,9.2,4.4c4.1,0,8-0.9,11.9-2.7c4-1.8,6-3.8,6-6c0-3-1.2-5-3.7-5.9
		c-1.8-0.7-5.3-1.1-10.6-1.2c-4.1-0.1-7.8-0.9-11-2.3c-4.4-2-6.6-4.8-6.5-8.5c0.1-4.6,2.5-8.9,7.4-12.7c4.9-3.9,10.2-5.8,16.1-5.8
		c2.3,0,5.2,0.5,8.6,1.6c4.3,1.3,6.4,2.9,6.4,4.6c0,1.2-0.4,2.3-1.3,3.3c-1,1.1-2.2,1.6-3.7,1.6c-1.1,0-2.8-0.2-5-0.7
		c-2.2-0.5-3.9-0.7-5-0.7c-3.1,0-6,0.8-8.7,2.2c-2.9,1.5-4.3,3.1-4.3,4.8c0,0.9,0.4,1.6,1.3,2.2c0.9,0.6,2.2,1,3.9,1.2
		c3,0.2,6.1,0.3,9.1,0.5c5.3,0.4,9.4,1.9,12.5,4.5c3.4,2.9,5.1,6.8,5.1,11.8c0,6.1-3.5,10.8-10.5,13.9
		C262.5,277.6,256.5,278.8,249.6,278.8z"/>
	<path d="M180.5,321.5c-1.9,0-4.7-0.1-8.7-0.4c-3.8-0.3-6.7-0.4-8.7-0.4c0.1,2.7,0.4,7.5,1,14.5c0.5,6.1,0.7,11,0.7,14.5
		c0,0.8,0.1,2,0.2,3.6c0.2,1.6,0.2,2.8,0.2,3.6c0,1.8-0.4,3.4-1.1,4.8c-1,1.8-2.4,2.7-4.2,2.7c-1.3,0-2.5-0.4-3.5-1.2
		c-1.1-0.9-1.7-2.1-1.7-3.5c0-0.3,0.1-0.8,0.2-1.5c0.1-0.7,0.2-1.2,0.2-1.6c0-1.1-0.1-2.7-0.2-5c-0.2-2.2-0.2-3.9-0.2-5
		c0-3.2-0.2-7.5-0.7-12.9c-0.6-6.3-0.9-10.6-1-12.9h-1.9c-5.3,0-9.5-0.4-12.6-1.1c-2.6-0.6-4-2.2-4-4.7c0-1.2,0.4-2.3,1.3-3.3
		c1-1.2,2.3-1.7,3.9-1.6c0.8,0,2.7,0.3,5.7,0.6c2.4,0.3,4.3,0.4,5.7,0.4c1.4,0,3.6,0,6.5-0.1c2.9,0,5.1-0.1,6.5-0.1
		c1.8,0,4.5,0.1,8.1,0.4c3.6,0.2,6.3,0.4,8.1,0.4c1.4,0,2.6,0.5,3.6,1.4c1,0.9,1.4,2.1,1.4,3.4c0,1.4-0.5,2.5-1.4,3.4
		C183.1,321,181.9,321.5,180.5,321.5z"/>
	<path d="M218.4,322.1c-1.1,0-4.3-0.3-9.4-1c-0.3,4.4-0.5,10.2-0.5,17.4l0,16c3.2-0.1,6.4-0.1,9.7-0.1c1.4,0,2.6,0.5,3.5,1.4
		c0.9,1,1.4,2.1,1.4,3.4c0,1.3-0.5,2.5-1.4,3.4c-1,0.9-2.2,1.4-3.6,1.4c-1.4,0-3.4,0-6.1,0.1c-2.7,0.1-4.8,0.1-6.1,0.1
		c-1.6,0-4,0.2-7.2,0.6c-3.2,0.4-5.6,0.6-7.2,0.6c-1.5,0-2.7-0.5-3.6-1.4s-1.4-2.1-1.4-3.4c0-1.3,0.5-2.5,1.5-3.4
		c1-0.9,2.3-1.4,3.8-1.4c1.7,0,4-0.2,6.8-0.5c0-2.8-0.1-8.2-0.1-16.1c0-6.5,0.2-12.6,0.7-18.5l-7.7,0.2c-1.4,0-2.6-0.5-3.6-1.4
		c-1-0.9-1.4-2.1-1.4-3.5c0-1.4,0.5-2.5,1.4-3.4c0.9-0.8,1.9-1.3,3.1-1.4c2-0.2,5.5-0.3,10.6-0.3c4.5,0,10.3,0.5,17.4,1.5
		c2.8,0.4,4.2,2,4.2,4.9c0,1.5-0.5,2.7-1.6,3.6C220.6,321.7,219.5,322.1,218.4,322.1z"/>
	<path d="M243.8,336c-1.1,3.8-2.6,9.7-4.5,17.4c-0.5,2.7-0.9,5.4-1.3,8c-1,3.4-2.8,5.1-5.4,5.1c-1.6,0-2.9-0.6-3.9-1.7
		c-0.8-1-1.2-2.1-1.2-3.4c0-3.8,0.8-8.5,2.5-14.1c2.4-8.3,3.8-12.9,4-13.8c0.7-3.7,1.4-7.3,2.1-11c1.1-5,2.2-8.4,3.5-10.1
		c1.2-1.7,2.8-2.5,4.7-2.5c2.2,0,3.8,1.1,4.8,3.3c1,2.1,2,6.3,3.1,12.7c1,6.2,2.6,12.9,4.7,20c2.7-7.1,5.2-14.8,7.6-23.2l2-8.2
		c1.3-3.4,3.3-5.1,6-5.1c2.6,0,4.5,2,5.8,5.9c0.5,1.6,1.1,4.6,1.7,8.9c1.4,10.1,3.1,18.8,5.2,26c2.1,7.3,3.2,11.3,3.2,12
		c0,1.4-0.6,2.6-1.7,3.5c-1,0.9-2.2,1.3-3.5,1.3c-2.6,0-4.5-1.9-5.8-5.6l-2-8.6c-1.1-4.3-2.4-10.4-3.7-18.4c-1.1,3.2-2.8,8.2-5.3,15
		l-2.1,6.6c-0.9,2.6-1.8,4.7-2.7,6.4c-1.3,2.2-3,3.3-5.3,3.3c-2.2,0-3.9-1.3-5.1-4l-2-6.6C246.9,349.1,245.3,342.7,243.8,336z"/>
	<path d="M328.9,318.5c-0.5,0-1-0.1-1.5-0.2c-3.8-1-7.6-1.6-11.2-1.6c-1.8,0-3.7,0.1-5.7,0.4s-4.2,0.7-6.5,1.3
		c0,3.2-0.1,7.9-0.3,14.1c1.3-0.1,6-0.5,13.9-1.3c4.5-0.5,7.4-0.7,8.6-0.7c1.4,0,2.6,0.4,3.6,1.3c1,0.9,1.5,2.1,1.5,3.5
		c0,2.8-1.5,4.4-4.5,4.8c-1.9,0.1-4.7,0.4-8.5,0.7c-3.4,0.4-8.5,0.8-15.3,1.4c-0.2,3-0.2,5.5-0.2,7.3c0,4.7,0.3,7.3,0.8,7.9
		c0.3,0.3,1.8,0.5,4.5,0.5c1.5,0,3.7,0,6.7-0.1c3-0.1,5.2-0.1,6.7-0.1c0.5,0,1.2-0.1,2.1-0.2s1.6-0.2,2.1-0.2c1.4,0,2.6,0.4,3.5,1.2
		c1.1,0.9,1.7,2.1,1.7,3.7c0,2.7-1.4,4.3-4.2,4.8c-2.4,0.5-7.3,0.7-14.8,0.7c-7.7,0-12.8-1-15.1-3.1c-2.6-2.3-3.9-7.3-3.9-15
		c0-3.2,0.2-8,0.7-14.3c0.5-6.4,0.7-11.2,0.7-14.3c0-0.8-0.1-2.1-0.4-3.7s-0.4-2.9-0.4-3.7c0-3.6,1.7-5.4,5-5.4c1,0,2,0.3,2.9,0.9
		c2.8-0.7,5.4-1.2,7.9-1.5c2.5-0.3,4.8-0.5,7-0.5c6,0,10.8,0.7,14.4,2.1c2.2,0.8,3.3,2.3,3.3,4.5c0,1.2-0.4,2.3-1.3,3.3
		C331.6,318,330.4,318.5,328.9,318.5z"/>
</g>
</svg>
